General

Format                           : Matroska
File size                        : 2.55 GiB
Duration                         : 2h 23mn
Overall bit rate                 : 2 545 Kbps
Encoded date                     : UTC 2011-01-04 11:45:34
Writing application              : mkvmerge v4.3.0 (\'Escape from the Island\') built on Sep  5 2010 10:30:51
Writing library                  : libebml v1.0.0 + libmatroska v1.0.0

Video

ID                               : 1
Format                           : AVC
Format/Info                      : Advanced Video Codec
Format profile                   : High@L4.1
Format settings, CABAC           : Yes
Format settings, ReFrames        : 3 frames
Muxing mode                      : Header stripping
Codec ID                         : V_MPEG4/ISO/AVC
Duration                         : 2h 23mn
Bit rate mode                    : Variable
Bit rate                         : 2 111 Kbps
Maximum bit rate                 : 10 000 Kbps
Width                            : 928 pixels
Height                           : 400 pixels
Display aspect ratio             : 2.35:1
Frame rate                       : 24.000 fps
Color space                      : YUV
Chroma subsampling               : 4:2:0
Bit depth                        : 8 bits
Scan type                        : Progressive
Bits/(Pixel*Frame)               : 0.237
Stream size                      : 2.12 GiB (83%)


Audio

ID                               : 2
Format                           : AC-3
Format/Info                      : Audio Coding 3
Mode extension                   : CM (complete main)
Muxing mode                      : Header stripping
Codec ID                         : A_AC3
Duration                         : 2h 23mn
Bit rate mode                    : Constant
Bit rate                         : 384 Kbps
Channel(s)                       : 6 channels
Channel positions                : Front: L C R, Side: L R, LFE
Sampling rate                    : 48.0 KHz
Bit depth                        : 16 bits
Compression mode                 : Lossy
Stream size                      : 394 MiB (15%)

Text

ID                               : 3
Format                           : UTF-8
Codec ID                         : S_TEXT/UTF8
Codec ID/Info                    : UTF-8 Plain Text
Language                         : English


Screenshots :

 
http://img832.imageshack.us/img832/7668/vlcsnap2011010519h28m44.png 
http://img444.imageshack.us/img444/8530/vlcsnap2011010519h30m23.png 
http://img836.imageshack.us/img836/5281/vlcsnap2011010519h30m49.png 
http://img267.imageshack.us/img267/2760/vlcsnap2011010519h30m59.png 
http://img207.imageshack.us/img207/1536/vlcsnap2011010519h31m28.png 
http://img46.imageshack.us/img46/6006/vlcsnap2011010519h32m34.png 
http://img148.imageshack.us/img148/4347/vlcsnap2011010519h32m50.png 
http://img714.imageshack.us/img714/7011/vlcsnap2011010519h33m40.png
